<?xml version="1.0" standalone="no"?>
<!DOCTYPE svg PUBLIC "-//W3C//DTD SVG 20010904//EN"
 "http://www.w3.org/TR/2001/REC-SVG-20010904/DTD/svg10.dtd">
<svg version="1.0" xmlns="http://www.w3.org/2000/svg"
 width="900.000000pt" height="900.000000pt" viewBox="0 0 900.000000 900.000000"
 preserveAspectRatio="xMidYMid meet">

<g transform="translate(0.000000,900.000000) scale(0.100000,-0.100000)"
fill="#000000" stroke="none">
<path d="M6513 6955 c-85 -23 -213 -99 -213 -127 0 -9 90 -137 120 -171 4 -5
32 7 61 27 101 66 221 68 243 4 23 -65 -28 -110 -148 -130 -75 -12 -75 -12
-56 -124 6 -32 13 -74 16 -91 l5 -33 83 0 84 0 6 43 c6 42 8 44 59 60 110 35
176 95 203 184 46 153 -36 304 -191 352 -79 25 -193 27 -272 6z"/>
<path d="M4610 6864 c-420 -54 -726 -241 -889 -546 -67 -124 -131 -353 -131
-470 l0 -28 33 20 c70 43 67 53 67 -271 l0 -290 -22 6 c-13 4 -42 18 -65 31
l-42 25 -5 -23 c-43 -199 -85 -313 -178 -484 -80 -146 -113 -228 -129 -319
-14 -83 -7 -259 15 -360 20 -93 70 -229 104 -283 l27 -43 1328 1 c879 0 1334
-3 1347 -10 15 -8 22 -5 40 19 100 141 168 453 141 647 -16 111 -36 165 -138
361 -91 175 -133 284 -159 415 -9 46 -18 84 -19 86 -1 1 -26 -13 -55 -33 -28
-19 -58 -35 -66 -35 -11 0 -14 31 -14 170 0 117 -3 170 -11 170 -6 0 -63 -22
-127 -49 -187 -79 -252 -104 -258 -98 -3 3 63 135 146 294 98 187 149 295 146
308 -3 11 -17 58 -31 105 -31 100 -55 234 -55 300 0 45 -3 51 -47 90 -202 179
-487 286 -783 294 -74 2 -151 2 -170 0z m-21 -966 c30 -46 98 -126 150 -179
222 -223 478 -331 864 -365 l67 -6 0 -59 c0 -151 -153 -409 -331 -559 -103
-86 -194 -135 -361 -193 -15 -5 -18 -19 -18 -90 l0 -84 100 -72 c54 -40 104
-79 110 -86 8 -10 -6 -22 -66 -55 -43 -23 -140 -85 -217 -137 -77 -51 -145
-92 -151 -90 -6 3 -67 42 -136 88 -69 46 -163 104 -208 129 -45 25 -82 50 -82
55 0 6 50 46 110 89 l111 78 -3 85 -3 85 -75 28 c-88 32 -176 75 -186 91 -5 9
11 10 62 5 48 -5 72 -12 79 -24 6 -9 22 -29 37 -44 22 -23 35 -28 76 -28 43 0
55 5 81 31 26 26 31 38 31 78 0 79 -60 131 -133 117 -33 -6 -80 -46 -89 -76
-5 -17 -59 -16 -178 2 -71 11 -78 14 -133 67 -104 99 -199 243 -252 384 -25
68 -25 71 -23 320 l3 251 100 13 c211 26 386 86 522 178 43 30 80 54 83 54 3
1 30 -36 59 -81z"/>
<path d="M6480 6115 l0 -115 135 0 135 0 0 115 0 115 -135 0 -135 0 0 -115z"/>
<path d="M6130 2783 l0 -503 -29 -32 c-29 -32 -31 -33 -126 -36 -83 -3 -96 -6
-93 -20 3 -15 21 -17 119 -20 l117 -3 60 67 c34 36 71 85 82 109 l21 43 -51
338 c-64 427 -80 525 -91 544 -5 8 -9 -206 -9 -487z"/>
<path d="M3348 3255 c-10 -28 -90 -490 -123 -716 l-28 -186 22 -46 c12 -25 49
-74 81 -109 49 -51 61 -60 69 -48 8 11 38 16 123 20 94 4 113 8 116 22 3 14
-10 17 -92 20 -89 3 -98 5 -123 31 l-28 27 -5 503 c-3 276 -8 493 -12 482z"/>
<path d="M4110 2190 c0 -20 7 -20 635 -20 628 0 635 0 635 20 0 20 -7 20 -635
20 -628 0 -635 0 -635 -20z"/>
<path d="M2573 2035 c-62 -27 -87 -111 -46 -157 44 -50 -68 -48 2210 -48 1428
0 2140 3 2165 10 104 29 104 171 0 200 -25 7 -737 10 -2167 10 -1789 -1 -2135
-3 -2162 -15z"/>
</g>
</svg>
